<svg xmlns="http://www.w3.org/2000/svg" width="2400" height="1500" viewBox="0 0 2400 1500" role="img" aria-labelledby="title desc">
  <title id="title">25 notable women searchable on Wikipedia, silhouette group portrait</title>
  <desc id="desc">A poster-style group portrait of 25 famous women represented as black silhouettes with small symbolic props and name labels.</desc>
  <defs>
    <linearGradient id="paper" x1="0" y1="0" x2="1" y2="1">
      <stop offset="0" stop-color="#f8f2e7"/>
      <stop offset="0.55" stop-color="#e7f0ef"/>
      <stop offset="1" stop-color="#f4e4df"/>
    </linearGradient>
    <radialGradient id="halo" cx="50%" cy="38%" r="62%">
      <stop offset="0" stop-color="#fff8dd" stop-opacity=".85"/>
      <stop offset="1" stop-color="#fff8dd" stop-opacity="0"/>
    </radialGradient>
    <filter id="softShadow" x="-20%" y="-20%" width="140%" height="150%">
      <feDropShadow dx="0" dy="14" stdDeviation="10" flood-color="#2a2018" flood-opacity=".18"/>
    </filter>
    <style>
      .sil { fill:#111111; }
      .deep { fill:#1a1715; }
      .gold { fill:#d3a84d; stroke:#111111; stroke-width:4; }
      .teal { fill:#2e7475; stroke:#111111; stroke-width:4; }
      .red { fill:#a94845; stroke:#111111; stroke-width:4; }
      .line { fill:none; stroke:#111111; stroke-width:9; stroke-linecap:round; stroke-linejoin:round; }
      .thin { fill:none; stroke:#111111; stroke-width:5; stroke-linecap:round; stroke-linejoin:round; }
      .label { font-family: Georgia, 'Times New Roman', serif; font-size:25px; fill:#241f1a; text-anchor:middle; font-weight:700; letter-spacing:0; }
      .caption { font-family: Arial, Helvetica, sans-serif; fill:#3a342d; text-anchor:middle; letter-spacing:0; }
    </style>
  </defs>

  <rect width="2400" height="1500" fill="url(#paper)"/>
  <rect width="2400" height="1500" fill="url(#halo)"/>
  <path d="M0 1125 C360 1065 660 1188 1015 1138 C1360 1090 1690 1012 2400 1104 L2400 1500 L0 1500 Z" fill="#d7c6ad" opacity=".52"/>
  <path d="M0 1258 C340 1218 625 1284 970 1250 C1410 1208 1740 1158 2400 1238 L2400 1500 L0 1500 Z" fill="#b9d1cf" opacity=".38"/>

  <g transform="translate(0,26)" filter="url(#softShadow)">
    <!-- Back row -->
    <g transform="translate(135 408) scale(.82)">
      <title>Cleopatra</title>
      <path class="gold" d="M-50 -12 L0 -76 L50 -12 Z"/>
      <circle class="sil" cx="0" cy="0" r="40"/>
      <path class="sil" d="M-48 8 C-38 58 -25 78 0 78 C25 78 38 58 48 8 L34 110 L-34 110 Z"/>
      <path class="sil" d="M-58 88 C-92 162 -88 260 -62 340 L62 340 C88 260 92 162 58 88 C32 122 -32 122 -58 88 Z"/>
      <path class="gold" d="M-52 54 L52 54 L42 78 L-42 78 Z"/>
      <path class="line" d="M-83 118 L-116 246"/>
      <path class="line" d="M83 118 L116 246"/>
    </g>

    <g transform="translate(310 418) scale(.8)">
      <title>Joan of Arc</title>
      <circle class="sil" cx="0" cy="0" r="38"/>
      <path class="sil" d="M-48 -4 C-44 -56 44 -56 48 -4 C30 -18 -30 -18 -48 -4 Z"/>
      <path class="sil" d="M-62 78 L62 78 L82 338 L-82 338 Z"/>
      <path class="gold" d="M-48 92 L48 92 L35 160 L-35 160 Z"/>
      <path class="line" d="M-88 110 L-128 245"/>
      <path class="line" d="M86 112 L124 236"/>
      <path class="thin" d="M105 -28 L105 260 M72 16 L138 16"/>
    </g>

    <g transform="translate(485 430) scale(.78)">
      <title>Jane Austen</title>
      <circle class="sil" cx="0" cy="0" r="38"/>
      <path class="sil" d="M-45 6 C-66 42 -43 77 0 76 C43 77 66 42 45 6 C20 22 -20 22 -45 6 Z"/>
      <path class="sil" d="M-54 86 C-90 164 -86 262 -66 338 L66 338 C86 262 90 164 54 86 C28 118 -28 118 -54 86 Z"/>
      <path class="line" d="M-82 122 L-118 236"/>
      <path class="line" d="M80 124 L114 238"/>
      <rect class="teal" x="-132" y="210" width="70" height="92" rx="5"/>
      <path class="thin" d="M-98 214 L-98 300"/>
    </g>

    <g transform="translate(660 422) scale(.79)">
      <title>Mary Shelley</title>
      <circle class="sil" cx="0" cy="0" r="39"/>
      <path class="sil" d="M-50 -2 C-66 40 -56 80 -14 86 L14 86 C56 80 66 40 50 -2 C24 18 -24 18 -50 -2 Z"/>
      <path class="sil" d="M-58 86 C-88 162 -82 246 -62 340 L62 340 C82 246 88 162 58 86 C30 120 -30 120 -58 86 Z"/>
      <path class="line" d="M-85 126 L-118 244"/>
      <path class="line" d="M84 126 L116 244"/>
      <path class="red" d="M70 236 C92 202 136 214 140 252 C122 238 102 262 82 286 Z"/>
    </g>

    <g transform="translate(835 410) scale(.82)">
      <title>Harriet Tubman</title>
      <circle class="sil" cx="0" cy="0" r="38"/>
      <path class="sil" d="M-48 -12 C-28 -48 28 -48 48 -12 L54 18 C26 4 -26 4 -54 18 Z"/>
      <path class="sil" d="M-58 86 C-96 160 -88 260 -62 340 L62 340 C88 260 96 160 58 86 C30 122 -30 122 -58 86 Z"/>
      <path class="line" d="M-82 122 L-116 246"/>
      <path class="line" d="M78 120 L126 236"/>
      <path class="gold" d="M127 222 L160 222 L168 270 L119 270 Z"/>
      <path class="thin" d="M123 222 C123 194 164 194 164 222"/>
    </g>

    <g transform="translate(1010 424) scale(.8)">
      <title>Florence Nightingale</title>
      <circle class="sil" cx="0" cy="0" r="38"/>
      <path class="sil" d="M-50 14 C-42 58 -28 84 0 84 C28 84 42 58 50 14 C23 28 -23 28 -50 14 Z"/>
      <path class="sil" d="M-56 86 C-88 160 -84 254 -64 340 L64 340 C84 254 88 160 56 86 C28 120 -28 120 -56 86 Z"/>
      <path class="line" d="M-84 126 L-120 242"/>
      <path class="line" d="M82 124 L126 234"/>
      <path class="gold" d="M118 222 L172 222 L158 278 L132 278 Z"/>
      <path class="red" d="M145 184 C126 208 146 218 148 224 C168 205 158 192 145 184 Z"/>
    </g>

    <g transform="translate(1185 416) scale(.82)">
      <title>Susan B. Anthony</title>
      <circle class="sil" cx="0" cy="0" r="39"/>
      <path class="sil" d="M-52 -4 C-74 44 -46 88 0 88 C46 88 74 44 52 -4 C30 20 -30 20 -52 -4 Z"/>
      <path class="sil" d="M-60 86 C-92 170 -86 260 -64 340 L64 340 C86 260 92 170 60 86 C30 120 -30 120 -60 86 Z"/>
      <path class="line" d="M-86 124 L-122 242"/>
      <path class="line" d="M84 124 L122 242"/>
      <path class="gold" d="M-42 86 L-18 86 L42 340 L18 340 Z"/>
    </g>

    <g transform="translate(1360 426) scale(.8)">
      <title>Ada Lovelace</title>
      <circle class="sil" cx="0" cy="0" r="38"/>
      <path class="sil" d="M-56 -2 C-72 42 -54 86 -12 92 L12 92 C54 86 72 42 56 -2 C24 22 -24 22 -56 -2 Z"/>
      <path class="sil" d="M-56 88 C-88 162 -82 254 -62 340 L62 340 C82 254 88 162 56 88 C28 120 -28 120 -56 88 Z"/>
      <path class="line" d="M-84 126 L-118 242"/>
      <path class="line" d="M84 126 L118 242"/>
      <rect class="teal" x="-134" y="214" width="72" height="92" rx="8"/>
      <path class="thin" d="M-123 238 L-73 238 M-123 262 L-78 262"/>
    </g>

    <g transform="translate(1535 406) scale(.84)">
      <title>Marie Curie</title>
      <circle class="sil" cx="0" cy="0" r="38"/>
      <path class="sil" d="M-48 8 C-42 58 -24 84 0 84 C24 84 42 58 48 8 C22 24 -22 24 -48 8 Z"/>
      <path class="sil" d="M-58 88 C-90 164 -86 258 -64 340 L64 340 C86 258 90 164 58 88 C30 122 -30 122 -58 88 Z"/>
      <path class="line" d="M-84 126 L-118 244"/>
      <path class="line" d="M84 126 L118 244"/>
      <path class="teal" d="M96 210 L132 210 L132 246 L154 292 C160 306 150 322 134 322 L94 322 C78 322 68 306 74 292 L96 246 Z"/>
      <path class="thin" d="M88 284 L150 284"/>
    </g>

    <g transform="translate(1710 422) scale(.81)">
      <title>Emmeline Pankhurst</title>
      <circle class="sil" cx="0" cy="0" r="39"/>
      <path class="sil" d="M-50 4 C-60 54 -40 84 0 84 C40 84 60 54 50 4 C24 22 -24 22 -50 4 Z"/>
      <path class="sil" d="M-58 86 C-92 168 -84 260 -62 340 L62 340 C84 260 92 168 58 86 C30 122 -30 122 -58 86 Z"/>
      <path class="line" d="M-84 126 L-118 244"/>
      <path class="line" d="M84 126 L118 244"/>
      <path class="thin" d="M118 100 L118 270"/>
      <path class="red" d="M118 102 L208 126 L118 152 Z"/>
    </g>

    <g transform="translate(1885 412) scale(.82)">
      <title>Frida Kahlo</title>
      <circle class="sil" cx="0" cy="0" r="38"/>
      <circle class="red" cx="-38" cy="-44" r="16"/>
      <circle class="gold" cx="0" cy="-54" r="15"/>
      <circle class="red" cx="38" cy="-44" r="16"/>
      <path class="sil" d="M-55 2 C-70 48 -52 86 -10 94 L10 94 C52 86 70 48 55 2 C24 26 -24 26 -55 2 Z"/>
      <path class="sil" d="M-60 88 C-96 160 -88 260 -64 340 L64 340 C88 260 96 160 60 88 C32 122 -32 122 -60 88 Z"/>
      <path class="line" d="M-86 126 L-122 244"/>
      <path class="line" d="M86 126 L122 244"/>
    </g>

    <g transform="translate(2060 420) scale(.8)">
      <title>Amelia Earhart</title>
      <circle class="sil" cx="0" cy="0" r="38"/>
      <path class="sil" d="M-52 -24 C-26 -58 26 -58 52 -24 L56 14 C24 -4 -24 -4 -56 14 Z"/>
      <path class="gold" d="M-34 -4 L-2 -4 L-2 24 L-34 24 Z M2 -4 L34 -4 L34 24 L2 24 Z"/>
      <path class="sil" d="M-58 88 C-88 162 -84 254 -62 340 L62 340 C84 254 88 162 58 88 C30 120 -30 120 -58 88 Z"/>
      <path class="line" d="M-84 126 L-120 244"/>
      <path class="line" d="M84 126 L120 244"/>
      <path class="thin" d="M80 250 L168 218 M118 198 L122 272"/>
    </g>

    <g transform="translate(2235 424) scale(.79)">
      <title>Rosa Parks</title>
      <circle class="sil" cx="0" cy="0" r="38"/>
      <path class="sil" d="M-52 4 C-60 54 -40 84 0 84 C40 84 60 54 52 4 C24 22 -24 22 -52 4 Z"/>
      <path class="sil" d="M-58 88 C-90 162 -86 254 -64 340 L64 340 C86 254 90 162 58 88 C30 120 -30 120 -58 88 Z"/>
      <path class="line" d="M-84 126 L-120 244"/>
      <path class="line" d="M84 126 L122 244"/>
      <rect class="teal" x="72" y="220" width="82" height="58" rx="8"/>
      <path class="thin" d="M82 244 L144 244"/>
    </g>

    <!-- Front row -->
    <g transform="translate(185 815) scale(1.02)">
      <title>Audrey Hepburn</title>
      <circle class="sil" cx="0" cy="0" r="38"/>
      <path class="sil" d="M-28 -48 C-10 -84 24 -74 24 -44 C44 -32 46 -6 36 14 C18 0 -18 0 -36 14 C-44 -8 -42 -34 -28 -48 Z"/>
      <path class="sil" d="M-62 86 C-98 166 -90 262 -64 340 L64 340 C90 262 98 166 62 86 C32 124 -32 124 -62 86 Z"/>
      <path class="line" d="M-88 126 L-128 248"/>
      <path class="line" d="M88 126 L128 248"/>
      <path class="gold" d="M-30 86 L30 86 L18 126 L-18 126 Z"/>
    </g>

    <g transform="translate(370 802) scale(1.04)">
      <title>Simone de Beauvoir</title>
      <circle class="sil" cx="0" cy="0" r="39"/>
      <path class="sil" d="M-54 -2 C-68 44 -52 86 -12 92 L12 92 C52 86 68 44 54 -2 C24 22 -24 22 -54 -2 Z"/>
      <path class="sil" d="M-58 86 C-90 164 -86 258 -64 340 L64 340 C86 258 90 164 58 86 C30 120 -30 120 -58 86 Z"/>
      <path class="line" d="M-86 126 L-124 246"/>
      <path class="line" d="M84 126 L120 246"/>
      <rect class="red" x="-140" y="220" width="78" height="100" rx="6"/>
      <path class="thin" d="M-128 248 L-78 248 M-128 274 L-84 274"/>
    </g>

    <g transform="translate(555 812) scale(1.02)">
      <title>Rosalind Franklin</title>
      <circle class="sil" cx="0" cy="0" r="38"/>
      <path class="sil" d="M-50 10 C-42 58 -28 84 0 84 C28 84 42 58 50 10 C23 26 -23 26 -50 10 Z"/>
      <path class="sil" d="M-58 86 C-90 162 -86 256 -64 340 L64 340 C86 256 90 162 58 86 C30 120 -30 120 -58 86 Z"/>
      <path class="line" d="M-84 126 L-120 246"/>
      <path class="line" d="M84 126 L120 246"/>
      <path class="thin" d="M100 164 C150 196 72 250 124 286 M142 164 C92 196 170 250 118 286"/>
      <path class="thin" d="M102 188 L140 188 M94 238 L150 238 M112 272 L132 272"/>
    </g>

    <g transform="translate(740 798) scale(1.05)">
      <title>Maya Angelou</title>
      <circle class="sil" cx="0" cy="0" r="38"/>
      <path class="sil" d="M-52 0 C-64 48 -44 86 0 88 C44 86 64 48 52 0 C26 22 -26 22 -52 0 Z"/>
      <path class="sil" d="M-60 86 C-94 164 -88 258 -64 340 L64 340 C88 258 94 164 60 86 C30 122 -30 122 -60 86 Z"/>
      <path class="line" d="M-88 126 L-126 246"/>
      <path class="line" d="M86 126 L122 246"/>
      <path class="thin" d="M124 204 L158 166 L172 180 L138 218"/>
      <circle class="gold" cx="166" cy="172" r="15"/>
    </g>

    <g transform="translate(925 812) scale(1.02)">
      <title>Valentina Tereshkova</title>
      <circle class="sil" cx="0" cy="0" r="42"/>
      <circle class="teal" cx="0" cy="0" r="54"/>
      <circle class="sil" cx="0" cy="0" r="34"/>
      <path class="sil" d="M-62 86 C-98 162 -92 258 -66 340 L66 340 C92 258 98 162 62 86 C32 124 -32 124 -62 86 Z"/>
      <path class="line" d="M-88 126 L-126 246"/>
      <path class="line" d="M88 126 L126 246"/>
      <circle class="gold" cx="-34" cy="160" r="11"/>
    </g>

    <g transform="translate(1110 795) scale(1.06)">
      <title>Indira Gandhi</title>
      <circle class="sil" cx="0" cy="0" r="38"/>
      <path class="sil" d="M-50 -8 C-68 40 -54 88 -10 94 L10 94 C54 88 68 40 50 -8 C26 18 -26 18 -50 -8 Z"/>
      <path class="sil" d="M-68 84 C-104 164 -92 262 -66 340 L66 340 C92 262 104 164 68 84 C32 126 -32 126 -68 84 Z"/>
      <path class="gold" d="M-78 116 C-24 172 24 222 78 338 L36 338 C-2 244 -44 196 -88 146 Z"/>
      <path class="line" d="M-92 128 L-132 246"/>
      <path class="line" d="M90 128 L132 246"/>
    </g>

    <g transform="translate(1295 807) scale(1.03)">
      <title>Wangari Maathai</title>
      <circle class="sil" cx="0" cy="0" r="39"/>
      <path class="sil" d="M-56 -4 C-72 42 -52 88 -12 94 L12 94 C52 88 72 42 56 -4 C28 20 -28 20 -56 -4 Z"/>
      <path class="sil" d="M-62 86 C-98 164 -90 260 -64 340 L64 340 C90 260 98 164 62 86 C32 124 -32 124 -62 86 Z"/>
      <path class="line" d="M-88 126 L-126 246"/>
      <path class="line" d="M86 126 L124 246"/>
      <path class="thin" d="M128 284 L128 210"/>
      <path class="teal" d="M128 224 C96 190 66 216 70 252 C98 242 112 232 128 224 Z"/>
      <path class="teal" d="M130 220 C164 184 196 212 190 252 C164 242 146 232 130 220 Z"/>
    </g>

    <g transform="translate(1480 802) scale(1.04)">
      <title>Margaret Thatcher</title>
      <circle class="sil" cx="0" cy="0" r="38"/>
      <path class="sil" d="M-50 -6 C-64 42 -46 84 0 86 C46 84 64 42 50 -6 C24 20 -24 20 -50 -6 Z"/>
      <path class="sil" d="M-58 86 C-90 164 -86 258 -64 340 L64 340 C86 258 90 164 58 86 C30 120 -30 120 -58 86 Z"/>
      <path class="line" d="M-84 126 L-120 246"/>
      <path class="line" d="M84 126 L120 246"/>
      <path class="gold" d="M102 246 L164 246 L172 312 L92 312 Z"/>
      <path class="thin" d="M108 246 C108 220 158 220 158 246"/>
    </g>

    <g transform="translate(1665 815) scale(1.02)">
      <title>Oprah Winfrey</title>
      <circle class="sil" cx="0" cy="0" r="38"/>
      <path class="sil" d="M-62 -2 C-76 50 -56 92 -14 100 L14 100 C56 92 76 50 62 -2 C30 24 -30 24 -62 -2 Z"/>
      <path class="sil" d="M-62 88 C-98 164 -90 260 -64 340 L64 340 C90 260 98 164 62 88 C32 124 -32 124 -62 88 Z"/>
      <path class="line" d="M-88 128 L-126 248"/>
      <path class="line" d="M86 128 L122 248"/>
      <circle class="red" cx="137" cy="202" r="18"/>
      <path class="thin" d="M126 216 L96 268"/>
    </g>

    <g transform="translate(1850 808) scale(1.03)">
      <title>Angela Merkel</title>
      <circle class="sil" cx="0" cy="0" r="38"/>
      <path class="sil" d="M-48 6 C-40 56 -24 82 0 82 C24 82 40 56 48 6 C22 22 -22 22 -48 6 Z"/>
      <path class="sil" d="M-60 86 C-92 164 -88 256 -64 340 L64 340 C88 256 92 164 60 86 C30 120 -30 120 -60 86 Z"/>
      <path class="teal" d="M-48 98 L0 160 L48 98 L58 340 L-58 340 Z"/>
      <path class="line" d="M-86 126 L-122 246"/>
      <path class="line" d="M86 126 L122 246"/>
      <path class="thin" d="M-34 238 C-12 258 12 258 34 238"/>
    </g>

    <g transform="translate(2035 796) scale(1.05)">
      <title>Malala Yousafzai</title>
      <circle class="sil" cx="0" cy="0" r="38"/>
      <path class="sil" d="M-68 -8 C-62 -70 62 -70 68 -8 C56 68 30 96 0 98 C-30 96 -56 68 -68 -8 Z"/>
      <path class="sil" d="M-62 88 C-96 164 -90 260 -64 340 L64 340 C90 260 96 164 62 88 C32 124 -32 124 -62 88 Z"/>
      <path class="line" d="M-88 126 L-126 246"/>
      <path class="line" d="M86 126 L122 246"/>
      <rect class="gold" x="88" y="226" width="78" height="92" rx="6"/>
      <path class="thin" d="M100 250 L152 250 M100 276 L148 276"/>
    </g>

    <g transform="translate(2220 807) scale(1.03)">
      <title>Serena Williams</title>
      <circle class="sil" cx="0" cy="0" r="38"/>
      <path class="sil" d="M-54 0 C-66 50 -44 88 0 90 C44 88 66 50 54 0 C28 22 -28 22 -54 0 Z"/>
      <path class="sil" d="M-62 86 C-98 164 -90 260 -64 340 L64 340 C90 260 98 164 62 86 C32 124 -32 124 -62 86 Z"/>
      <path class="line" d="M-88 126 L-126 246"/>
      <path class="line" d="M86 126 L122 246"/>
      <ellipse class="gold" cx="148" cy="170" rx="34" ry="50" transform="rotate(28 148 170)"/>
      <path class="thin" d="M128 214 L94 290"/>
      <path class="thin" d="M126 150 L170 190 M118 172 L162 212"/>
    </g>

  </g>

  <g>
    <text x="1200" y="92" class="caption" font-size="54" font-weight="800">25 Notable Women Searchable on Wikipedia</text>
    <text x="1200" y="142" class="caption" font-size="27">silhouette group portrait across science, literature, civil rights, politics, art, exploration and sport</text>
  </g>

  <g class="caption" font-size="24" font-weight="700">
    <rect x="120" y="1228" width="2160" height="220" rx="24" fill="#fff9ea" opacity=".72"/>
    <text x="320" y="1274">Cleopatra</text>
    <text x="320" y="1312">Joan of Arc</text>
    <text x="320" y="1350">Jane Austen</text>
    <text x="320" y="1388">Mary Shelley</text>
    <text x="320" y="1426">Harriet Tubman</text>

    <text x="760" y="1274">Florence Nightingale</text>
    <text x="760" y="1312">Susan B. Anthony</text>
    <text x="760" y="1350">Ada Lovelace</text>
    <text x="760" y="1388">Marie Curie</text>
    <text x="760" y="1426">Emmeline Pankhurst</text>

    <text x="1200" y="1274">Frida Kahlo</text>
    <text x="1200" y="1312">Amelia Earhart</text>
    <text x="1200" y="1350">Rosa Parks</text>
    <text x="1200" y="1388">Audrey Hepburn</text>
    <text x="1200" y="1426">Simone de Beauvoir</text>

    <text x="1640" y="1274">Rosalind Franklin</text>
    <text x="1640" y="1312">Maya Angelou</text>
    <text x="1640" y="1350">Valentina Tereshkova</text>
    <text x="1640" y="1388">Indira Gandhi</text>
    <text x="1640" y="1426">Wangari Maathai</text>

    <text x="2080" y="1274">Margaret Thatcher</text>
    <text x="2080" y="1312">Oprah Winfrey</text>
    <text x="2080" y="1350">Angela Merkel</text>
    <text x="2080" y="1388">Malala Yousafzai</text>
    <text x="2080" y="1426">Serena Williams</text>
  </g>
</svg>
